<?xml version="1.0" standalone="no"?>
<!DOCTYPE svg PUBLIC "-//W3C//DTD SVG 20010904//EN"
 "http://www.w3.org/TR/2001/REC-SVG-20010904/DTD/svg10.dtd">
<svg version="1.0" xmlns="http://www.w3.org/2000/svg"
 width="512.000000pt" height="512.000000pt" viewBox="0 0 512.000000 512.000000"
 preserveAspectRatio="xMidYMid meet">
<metadata>
Created by potrace 1.14, written by Peter Selinger 2001-2017
</metadata>
<g transform="translate(0.000000,512.000000) scale(0.100000,-0.100000)"
fill="#000000" stroke="none">
<path d="M4212 5104 c-252 -55 -437 -217 -614 -539 -141 -257 -222 -521 -222
-730 0 -133 7 -172 45 -251 83 -175 283 -246 559 -199 151 25 314 79 336 109
21 31 17 70 -11 96 -29 27 -27 28 -235 -31 -99 -28 -132 -32 -235 -33 -104 0
-127 3 -172 23 -96 43 -135 114 -139 256 -11 336 269 911 521 1070 189 119
437 123 629 11 137 -80 254 -243 283 -394 9 -47 10 -196 1 -242 -17 -87 -66
-191 -127 -267 -43 -55 -109 -109 -236 -193 -44 -30 -83 -58 -87 -64 -16 -23
-7 -67 18 -93 35 -35 63 -27 171 44 223 146 345 299 399 498 21 82 26 263 8
345 -61 281 -265 496 -549 577 -72 20 -266 24 -343 7z"/>
<path d="M2185 4620 c-69 -11 -184 -54 -256 -96 -132 -77 -252 -221 -313 -372
-30 -75 -34 -80 -52 -68 -25 16 -118 52 -169 65 -143 36 -296 28 -440 -22
-314 -108 -524 -434 -493 -767 10 -110 30 -184 74 -272 l24 -48 -27 -6 c-53
-13 -155 -64 -218 -109 -129 -92 -229 -230 -281 -390 -35 -107 -41 -283 -13
-395 59 -236 231 -433 457 -524 l81 -33 -19 -30 c-66 -108 -98 -344 -67 -489
55 -260 237 -473 475 -558 100 -35 112 -38 242 -42 143 -4 240 15 345 68 l49
25 32 -80 c97 -239 307 -414 557 -462 68 -13 240 -14 295 -1 184 43 352 153
458 303 44 61 95 164 108 216 l6 27 51 -25 c129 -66 314 -92 462 -65 226 40
432 194 537 400 60 118 75 190 74 355 -1 113 -4 141 -28 213 -15 45 -36 98
-47 117 l-21 34 29 7 c55 13 189 85 250 134 122 98 218 247 259 400 24 90 25
282 1 369 -58 214 -201 391 -392 486 -49 25 -117 52 -150 61 -73 19 -240 26
-315 13 -30 -5 -71 -11 -90 -14 -19 -3 -78 -17 -130 -31 -156 -42 -139 -45
-192 33 -60 88 -197 225 -292 293 l-74 53 15 41 c19 55 59 227 68 296 51 377
-110 684 -439 835 -120 56 -290 77 -431 55z m265 -156 c282 -65 478 -329 464
-621 -5 -106 -21 -196 -60 -329 l-15 -51 -87 33 c-175 65 -364 89 -562 71 -75
-7 -92 -9 -142 -22 -25 -6 -29 -3 -54 47 -43 85 -166 273 -195 298 -3 3 -22
24 -43 48 l-38 42 26 83 c77 245 303 412 562 415 46 0 111 -6 144 -14z m-1165
-448 c184 -18 335 -121 472 -323 88 -130 122 -195 103 -201 -8 -3 -58 -27
-112 -54 -189 -94 -363 -248 -482 -425 -22 -33 -32 -41 -45 -34 -18 9 -199 57
-246 65 -88 15 -174 24 -203 22 -46 -3 -64 13 -101 89 -99 200 -77 446 55 622
100 133 253 223 408 239 33 4 63 8 64 10 2 1 9 1 15 -1 7 -2 39 -6 72 -9z
m1169 -600 c170 -18 377 -101 526 -213 130 -97 272 -272 339 -417 33 -72 76
-203 84 -256 3 -19 9 -57 13 -85 11 -75 8 -222 -6 -306 -74 -441 -399 -792
-832 -900 -336 -84 -706 0 -968 219 -30 26 -57 50 -60 54 -22 30 -90 24 -116
-10 -38 -49 2 -107 145 -207 39 -28 70 -57 70 -65 1 -8 -8 -43 -19 -78 -11
-35 -22 -73 -24 -85 -3 -12 -7 -33 -10 -47 -17 -75 -27 -145 -30 -214 -3 -43
-10 -83 -15 -90 -18 -22 -132 -73 -201 -91 -64 -17 -215 -17 -283 -1 -90 21
-200 83 -272 152 -225 215 -247 568 -51 815 49 62 191 172 304 237 41 23 77
42 80 42 4 0 25 -39 46 -86 57 -124 101 -151 156 -95 33 32 33 58 1 113 -116
197 -156 526 -95 773 112 455 502 797 959 842 33 3 61 6 62 7 5 4 136 -2 197
-8z m-1554 -510 c14 -3 36 -8 50 -11 14 -3 34 -7 45 -9 28 -5 104 -25 141 -37
l32 -10 -29 -74 c-55 -142 -89 -336 -83 -475 4 -88 14 -192 20 -201 2 -4 6
-22 8 -39 3 -29 0 -33 -53 -60 -122 -62 -238 -143 -338 -234 l-43 -39 -85 28
c-199 64 -351 231 -399 435 -18 79 -14 234 8 303 72 224 251 384 477 426 45 8
204 6 249 -3z m3165 -21 c134 -45 238 -124 309 -235 72 -112 95 -182 101 -305
6 -145 -21 -243 -101 -365 -128 -196 -363 -296 -609 -259 -33 5 -73 11 -90 14
-32 5 -205 52 -210 57 -2 2 8 30 22 63 13 33 26 67 28 75 2 8 11 43 20 77 25
95 33 155 39 294 4 75 -13 224 -35 314 -12 47 -58 183 -70 207 -8 15 -1 20 48
33 32 9 65 19 73 22 8 3 60 13 115 23 136 24 259 19 360 -15z m-423 -1295 c57
-11 137 -22 178 -24 41 -3 78 -5 82 -5 16 -2 63 -89 88 -163 49 -144 37 -315
-31 -451 -186 -376 -680 -453 -974 -152 -72 74 -240 326 -224 338 2 2 39 20
82 40 79 37 221 125 272 168 86 74 187 185 240 265 l35 52 74 -24 c41 -13 121
-32 178 -44z m-1695 -480 c37 -11 84 -23 103 -26 19 -3 38 -8 41 -10 9 -5 146
-17 224 -18 62 -1 210 14 272 29 19 4 27 -3 52 -52 46 -91 148 -241 214 -316
l60 -68 -26 -80 c-43 -130 -114 -228 -222 -304 -78 -56 -141 -83 -235 -101
-328 -64 -637 144 -706 476 -23 111 -3 295 51 477 l16 52 44 -19 c24 -10 75
-28 112 -40z"/>
<path d="M1665 2480 c-39 -15 -48 -38 -50 -118 -1 -42 1 -85 3 -96 7 -25 58
-54 87 -49 47 10 59 36 60 133 0 77 -3 92 -20 109 -25 24 -54 32 -80 21z"/>
<path d="M2909 2479 c-37 -14 -46 -42 -44 -138 2 -78 5 -87 29 -107 22 -19 31
-21 58 -13 18 5 34 9 36 9 13 0 28 78 27 138 -2 57 -6 78 -21 92 -25 24 -53
30 -85 19z"/>
<path d="M2108 2356 c-40 -30 -39 -90 0 -126 123 -112 304 -111 415 2 26 26
37 70 24 94 -30 54 -76 57 -136 9 -24 -19 -50 -36 -57 -36 -49 -5 -62 -4 -84
3 -14 5 -41 22 -60 38 -37 32 -74 38 -102 16z"/>
</g>
</svg>
